<svg width="176" height="17" viewBox="0 0 176 17" fill="none" xmlns="http://www.w3.org/2000/svg">
<path d="M14.6848 16.7639H10.1109L4.33323 6.84722V16.7639H0V0.236111H4.57397L10.3516 10.1528V0.236111H14.6848V16.7639Z" fill="white"/>
<path d="M33.3531 16.7639H19.9923V0.236111H33.3531V3.54167H24.3255V6.72917H31.4272V10.0347H24.3255V13.4583H33.3531V16.7639Z" fill="white"/>
<path d="M49.9582 0.236111L52.847 10.8611L55.3747 0.236111H60.0691L55.4951 16.7639H50.9211L48.0323 6.49306L45.1435 16.7639H40.5695L35.9956 0.236111H40.6899L43.2176 10.8611L46.1064 0.236111H49.9582Z" fill="white"/>
<path d="M68.0246 16.7639H63.6914V0.236111H77.0522V3.54167H68.0246V7.4375H75.1263V10.7431H68.0246V16.7639Z" fill="white"/>
<path d="M91.9778 4.72222C91.9778 3.77778 91.4963 3.30556 90.5334 3.30556H86.4409C85.4779 3.30556 84.9965 3.77778 84.9965 4.72222V12.2778C84.9965 13.2222 85.4779 13.6944 86.4409 13.6944H90.5334C91.4963 13.6944 91.9778 13.2222 91.9778 12.2778V4.72222ZM96.311 12.2778C96.311 13.9306 95.9258 15.1347 95.1555 15.8903C94.4012 16.6301 93.1814 17 91.4963 17H85.4779C83.7928 17 82.565 16.6301 81.7947 15.8903C81.0404 15.1347 80.6632 13.9306 80.6632 12.2778V4.72222C80.6632 3.06945 81.0404 1.87315 81.7947 1.13333C82.565 0.377777 83.7928 0 85.4779 0H91.4963C93.1814 0 94.4012 0.377777 95.1555 1.13333C95.9258 1.87315 96.311 3.06945 96.311 4.72222V12.2778Z" fill="white"/>
<path d="M101.137 0.236111H111.248C112.933 0.236111 114.153 0.613889 114.907 1.36945C115.677 2.10926 116.063 3.30556 116.063 4.95833V7.08333C116.063 8.38981 115.838 9.40509 115.389 10.1292C114.955 10.8532 114.257 11.3333 113.294 11.5694L116.303 16.7639H111.609L108.841 11.8056H105.47V16.7639H101.137V0.236111ZM111.729 4.95833C111.729 4.01389 111.248 3.54167 110.285 3.54167H105.47V8.5H110.285C111.248 8.5 111.729 8.02778 111.729 7.08333V4.95833Z" fill="white"/>
<path d="M135.315 7.55556L131.945 13.4583H128.574L125.204 7.55556V16.7639H120.871V0.236111H125.445L130.259 8.97222L135.074 0.236111H139.648V16.7639H135.315V7.55556Z" fill="white"/>
<path d="M147.963 16.7639H143.268L149.648 0.236111H154.463L160.842 16.7639H156.148L155.064 13.8125H149.046L147.963 16.7639ZM150.129 10.7431H153.981L152.055 5.19445L150.129 10.7431Z" fill="white"/>
<path d="M170.945 16.7639H166.611V3.54167H161.556V0.236111H176V3.54167H170.945V16.7639Z" fill="white"/>
</svg>
