<svg width="40" height="40" viewBox="0 0 40 40" fill="none" xmlns="http://www.w3.org/2000/svg">
<path d="M20.5806 39.7552C20.2556 40.081 19.7279 40.0817 19.402 39.7567C19.4016 39.7562 19.401 39.7557 19.4006 39.7552L4.40056 24.7552C4.0808 24.4242 4.09001 23.8966 4.42103 23.5768C4.744 23.265 5.25595 23.265 5.57884 23.5768L19.1572 37.1552V0.833546C19.1572 0.37331 19.5303 0.00018692 19.9906 0.00018692C20.4508 0.00018692 20.8239 0.37331 20.8239 0.833546V37.1552L34.4006 23.5785C34.7203 23.2475 35.2478 23.2383 35.5789 23.5581C35.9099 23.8778 35.9191 24.4053 35.5994 24.7364C35.5927 24.7434 35.5859 24.7502 35.5789 24.7569L20.5806 39.7552Z" fill="#4CAF50"/>
<path d="M34.9906 23.3332C34.7694 23.3328 34.5572 23.4203 34.4006 23.5766L19.9906 37.9882L5.5806 23.5765C5.24958 23.2567 4.72201 23.266 4.40224 23.597C4.09037 23.92 4.09037 24.4319 4.40224 24.7548L19.4022 39.7548C19.7276 40.0801 20.2551 40.0801 20.5806 39.7548L35.5806 24.7548C35.9055 24.4289 35.9047 23.9012 35.5787 23.5763C35.4226 23.4207 35.2111 23.3332 34.9906 23.3332Z" fill="white"/>
<path d="M19.9906 0C19.5304 0 19.1572 0.373123 19.1572 0.833359V39.1666C19.1572 39.6269 19.5304 40 19.9906 40C20.4508 40 20.824 39.6269 20.824 39.1666V0.833279C20.8239 0.373123 20.4508 0 19.9906 0Z" fill="white"/>
</svg>
