<svg xmlns="http://www.w3.org/2000/svg" width="60" height="60" viewBox="0 0 60 60"><g transform="translate(0 0.002)"><path d="M5.031.751,69.668,0a4.732,4.732,0,0,1,4.914,4.7,5.012,5.012,0,0,1-5.03,4.817l-64.638.75A4.732,4.732,0,0,1,0,5.568,5.012,5.012,0,0,1,5.031.751Z" transform="translate(0 52.736) rotate(-45)" fill="#9d9d9d"/><path d="M4.914,0l64.638.75a5.012,5.012,0,0,1,5.03,4.817,4.732,4.732,0,0,1-4.914,4.7L5.031,9.519A5.012,5.012,0,0,1,0,4.7,4.732,4.732,0,0,1,4.914,0Z" transform="translate(7.262 -0.002) rotate(45)" fill="#9d9d9d"/></g></svg>